<?xml version="1.0" standalone="no"?>
<!DOCTYPE svg PUBLIC "-//W3C//DTD SVG 20010904//EN"
 "http://www.w3.org/TR/2001/REC-SVG-20010904/DTD/svg10.dtd">
<svg version="1.0" xmlns="http://www.w3.org/2000/svg"
 width="642.000000pt" height="642.000000pt" viewBox="0 0 642.000000 642.000000"
 preserveAspectRatio="xMidYMid meet">
<metadata>
Created by potrace 1.14, written by Peter Selinger 2001-2017
</metadata>
<g transform="translate(0.000000,642.000000) scale(0.100000,-0.100000)"
fill="#000000" stroke="none">
<path d="M4266 5713 c-12 -43 -119 -714 -114 -718 3 -3 173 -23 379 -45 206
-23 384 -43 397 -46 l22 -4 0 -553 c0 -306 11 -985 25 -1522 l24 -970 -43 -40
c-68 -64 -270 -218 -411 -314 -108 -73 -280 -176 -482 -288 l-33 -18 210 -304
c115 -168 214 -309 219 -314 19 -19 266 127 521 308 348 248 521 396 632 539
82 106 102 142 117 215 7 34 26 708 51 1885 22 1007 40 1856 40 1887 l0 56
-121 33 c-234 61 -565 118 -1049 180 -173 22 -329 42 -347 45 -24 4 -33 2 -37
-12z"/>
<path d="M2565 5654 c-336 -35 -610 -68 -830 -99 -258 -37 -513 -79 -519 -86
-2 -2 -106 -510 -231 -1129 -132 -657 -306 -1476 -416 -1969 -104 -464 -189
-849 -189 -855 0 -7 149 -45 387 -98 213 -48 388 -86 389 -85 1 1 57 274 125
607 67 333 124 607 126 609 2 3 77 -7 166 -22 225 -38 325 -47 529 -47 176 0
178 0 182 23 13 57 99 658 95 661 -2 2 -192 8 -421 13 -230 5 -420 11 -422 14
-3 2 59 372 137 821 l142 816 93 21 c91 21 299 48 305 40 2 -2 83 -384 180
-849 121 -582 229 -1141 347 -1795 95 -522 173 -952 175 -953 3 -4 787 119
793 124 2 1 -84 436 -192 966 -148 725 -262 1250 -463 2126 l-267 1162 -46 -1
c-25 -1 -103 -8 -175 -15z"/>
</g>
</svg>
